<?xml version="1.0" encoding="utf-8"?><svg xmlns="http://www.w3.org/2000/svg" xmlns:xlink="http://www.w3.org/1999/xlink"><symbol viewBox="0 0 33 30" id="arrow" xmlns="http://www.w3.org/2000/svg"><path d="M32.354 4.354a.5.5 0 000-.708L29.172.464a.5.5 0 10-.707.708L31.293 4l-2.828 2.828a.5.5 0 10.707.708l3.182-3.182zM0 4.5h32v-1H0v1z"/></symbol><symbol viewBox="0 0 32.5 7.46" id="arrow-prev" xmlns="http://www.w3.org/2000/svg"><path d="M.646 3.646a.5.5 0 000 .708l3.182 3.182a.5.5 0 10.708-.708L1.707 4l2.829-2.828a.5.5 0 10-.708-.708L.646 3.646zM33 3.5H1v1h32v-1z"/></symbol><symbol viewBox="0 0 29 29" id="logo-s" xmlns="http://www.w3.org/2000/svg"><path d="M.5 2.286h5.786a7.5 7.5 0 017.5 7.5v4H8a7.5 7.5 0 01-7.5-7.5v-4zm15.714 13.928H22a7.5 7.5 0 017.5 7.5v4h-5.786a7.5 7.5 0 01-7.5-7.5v-4zm0-8.214a7.5 7.5 0 017.5-7.5h4v5.786a7.5 7.5 0 01-7.5 7.5h-4V8zM2.286 23.714a7.5 7.5 0 017.5-7.5h4V22a7.5 7.5 0 01-7.5 7.5h-4v-5.786z"/></symbol></svg>